<svg xmlns="http://www.w3.org/2000/svg" width="24" height="24" viewBox="0 0 24 24">
  <path fill="#c2410c" transform="translate(3.219 21.184) scale(0.01090 -0.01090)" d="M729 1435Q667 1426 625 1465Q582 1506 582 1568Q582 1622 625 1671Q664 1714 729 1714Q797 1714 846 1658Q891 1592 891 1536Q891 1447 866 1407Q823 1341 723 1222L625 1269Q689 1315 729 1435ZM1117 931Q1201 1012 1296 1063H1425V1019Q1306 924 1246 825Q1226 791 1182 672L1237 346Q1273 130 1360 126Q1446 122 1527 188V33Q1252 -76 1062 45Q1026 68 990 104Q954 46 874 12Q783 -29 634 -29Q343 -29 213.5 121.0Q84 271 84 532Q84 792 214 943Q342 1092 660 1088Q1009 1086 1117 931ZM881 361 831 780Q814 926 678 936Q572 944 524 848Q479 761 479.0 532.0Q479 303 524 215Q570 126 678 127Q784 128 831 210Q843 231 881 361Z"/>
</svg>
